<svg width="1904" height="174" viewBox="0 0 1904 174" fill="none" xmlns="http://www.w3.org/2000/svg">
<rect width="1904" height="174" fill="url(#paint0_linear)"/>
<path d="M102.469 102V67.875H114.164C118.023 67.875 120.961 68.6484 122.977 70.1953C124.992 71.7422 126 74.0469 126 77.1094C126 78.6719 125.578 80.0781 124.734 81.3281C123.891 82.5781 122.656 83.5469 121.031 84.2344C122.875 84.7344 124.297 85.6797 125.297 87.0703C126.312 88.4453 126.82 90.1016 126.82 92.0391C126.82 95.2422 125.789 97.7031 123.727 99.4219C121.68 101.141 118.742 102 114.914 102H102.469ZM108.398 86.6016V97.2656H114.984C116.844 97.2656 118.297 96.8047 119.344 95.8828C120.391 94.9609 120.914 93.6797 120.914 92.0391C120.914 88.4922 119.102 86.6797 115.477 86.6016H108.398ZM108.398 82.2422H114.211C116.055 82.2422 117.492 81.8281 118.523 81C119.57 80.1562 120.094 78.9688 120.094 77.4375C120.094 75.75 119.609 74.5312 118.641 73.7812C117.688 73.0312 116.195 72.6562 114.164 72.6562H108.398V82.2422ZM159.984 85.8281C159.984 89.1719 159.406 92.1094 158.25 94.6406C157.094 97.1562 155.438 99.0938 153.281 100.453C151.141 101.797 148.672 102.469 145.875 102.469C143.109 102.469 140.641 101.797 138.469 100.453C136.312 99.0938 134.641 97.1641 133.453 94.6641C132.281 92.1641 131.688 89.2812 131.672 86.0156V84.0938C131.672 80.7656 132.258 77.8281 133.43 75.2812C134.617 72.7344 136.281 70.7891 138.422 69.4453C140.578 68.0859 143.047 67.4062 145.828 67.4062C148.609 67.4062 151.07 68.0781 153.211 69.4219C155.367 70.75 157.031 72.6719 158.203 75.1875C159.375 77.6875 159.969 80.6016 159.984 83.9297V85.8281ZM154.055 84.0469C154.055 80.2656 153.336 77.3672 151.898 75.3516C150.477 73.3359 148.453 72.3281 145.828 72.3281C143.266 72.3281 141.258 73.3359 139.805 75.3516C138.367 77.3516 137.633 80.1875 137.602 83.8594V85.8281C137.602 89.5781 138.328 92.4766 139.781 94.5234C141.25 96.5703 143.281 97.5938 145.875 97.5938C148.5 97.5938 150.516 96.5938 151.922 94.5938C153.344 92.5938 154.055 89.6719 154.055 85.8281V84.0469ZM193.125 85.8281C193.125 89.1719 192.547 92.1094 191.391 94.6406C190.234 97.1562 188.578 99.0938 186.422 100.453C184.281 101.797 181.812 102.469 179.016 102.469C176.25 102.469 173.781 101.797 171.609 100.453C169.453 99.0938 167.781 97.1641 166.594 94.6641C165.422 92.1641 164.828 89.2812 164.812 86.0156V84.0938C164.812 80.7656 165.398 77.8281 166.57 75.2812C167.758 72.7344 169.422 70.7891 171.562 69.4453C173.719 68.0859 176.188 67.4062 178.969 67.4062C181.75 67.4062 184.211 68.0781 186.352 69.4219C188.508 70.75 190.172 72.6719 191.344 75.1875C192.516 77.6875 193.109 80.6016 193.125 83.9297V85.8281ZM187.195 84.0469C187.195 80.2656 186.477 77.3672 185.039 75.3516C183.617 73.3359 181.594 72.3281 178.969 72.3281C176.406 72.3281 174.398 73.3359 172.945 75.3516C171.508 77.3516 170.773 80.1875 170.742 83.8594V85.8281C170.742 89.5781 171.469 92.4766 172.922 94.5234C174.391 96.5703 176.422 97.5938 179.016 97.5938C181.641 97.5938 183.656 96.5938 185.062 94.5938C186.484 92.5938 187.195 89.6719 187.195 85.8281V84.0469ZM208.828 87.2578L204.961 91.3594V102H199.031V67.875H204.961V83.8828L208.242 79.8281L218.227 67.875H225.398L212.719 82.9922L226.125 102H219.094L208.828 87.2578ZM264.516 72.6562H253.875V102H247.992V72.6562H237.445V67.875H264.516V72.6562ZM281.555 88.8516H274.945V102H269.016V67.875H281.016C284.953 67.875 287.992 68.7578 290.133 70.5234C292.273 72.2891 293.344 74.8438 293.344 78.1875C293.344 80.4688 292.789 82.3828 291.68 83.9297C290.586 85.4609 289.055 86.6406 287.086 87.4688L294.75 101.695V102H288.398L281.555 88.8516ZM274.945 84.0938H281.039C283.039 84.0938 284.602 83.5938 285.727 82.5938C286.852 81.5781 287.414 80.1953 287.414 78.4453C287.414 76.6172 286.891 75.2031 285.844 74.2031C284.812 73.2031 283.266 72.6875 281.203 72.6562H274.945V84.0938ZM318.07 94.0547H304.852L302.086 102H295.922L308.812 67.875H314.133L327.047 102H320.859L318.07 94.0547ZM306.516 89.2734H316.406L311.461 75.1172L306.516 89.2734ZM341.133 94.5703L349.805 67.875H356.32L344.039 102H338.297L326.062 67.875H332.555L341.133 94.5703ZM380.133 86.7656H366.117V97.2656H382.5V102H360.188V67.875H382.336V72.6562H366.117V82.0781H380.133V86.7656ZM393.258 97.2656H408.75V102H387.328V67.875H393.258V97.2656ZM448.5 72.6562H437.859V102H431.977V72.6562H421.43V67.875H448.5V72.6562ZM480.094 102H474.188V86.8359H458.93V102H453V67.875H458.93V82.0781H474.188V67.875H480.094V102ZM506.648 94.0547H493.43L490.664 102H484.5L497.391 67.875H502.711L515.625 102H509.438L506.648 94.0547ZM495.094 89.2734H504.984L500.039 75.1172L495.094 89.2734ZM541.359 72.6562H530.719V102H524.836V72.6562H514.289V67.875H541.359V72.6562ZM548.648 68.9297L548.039 78.0938H544.312V66H548.648V68.9297ZM571.805 93.2109C571.805 91.7109 571.273 90.5547 570.211 89.7422C569.164 88.9297 567.266 88.1094 564.516 87.2812C561.766 86.4531 559.578 85.5312 557.953 84.5156C554.844 82.5625 553.289 80.0156 553.289 76.875C553.289 74.125 554.406 71.8594 556.641 70.0781C558.891 68.2969 561.805 67.4062 565.383 67.4062C567.758 67.4062 569.875 67.8438 571.734 68.7188C573.594 69.5938 575.055 70.8438 576.117 72.4688C577.18 74.0781 577.711 75.8672 577.711 77.8359H571.805C571.805 76.0547 571.242 74.6641 570.117 73.6641C569.008 72.6484 567.414 72.1406 565.336 72.1406C563.398 72.1406 561.891 72.5547 560.812 73.3828C559.75 74.2109 559.219 75.3672 559.219 76.8516C559.219 78.1016 559.797 79.1484 560.953 79.9922C562.109 80.8203 564.016 81.6328 566.672 82.4297C569.328 83.2109 571.461 84.1094 573.07 85.125C574.68 86.125 575.859 87.2812 576.609 88.5938C577.359 89.8906 577.734 91.4141 577.734 93.1641C577.734 96.0078 576.641 98.2734 574.453 99.9609C572.281 101.633 569.328 102.469 565.594 102.469C563.125 102.469 560.852 102.016 558.773 101.109C556.711 100.188 555.102 98.9219 553.945 97.3125C552.805 95.7031 552.234 93.8281 552.234 91.6875H558.164C558.164 93.625 558.805 95.125 560.086 96.1875C561.367 97.25 563.203 97.7812 565.594 97.7812C567.656 97.7812 569.203 97.3672 570.234 96.5391C571.281 95.6953 571.805 94.5859 571.805 93.2109ZM621.047 97.5703C619.812 99.1797 618.102 100.398 615.914 101.227C613.727 102.055 611.242 102.469 608.461 102.469C605.602 102.469 603.07 101.82 600.867 100.523C598.664 99.2266 596.961 97.375 595.758 94.9688C594.57 92.5469 593.953 89.7266 593.906 86.5078V83.8359C593.906 78.6797 595.141 74.6562 597.609 71.7656C600.078 68.8594 603.523 67.4062 607.945 67.4062C611.742 67.4062 614.758 68.3438 616.992 70.2188C619.227 72.0938 620.57 74.7969 621.023 78.3281H615.211C614.555 74.2188 612.172 72.1641 608.062 72.1641C605.406 72.1641 603.383 73.125 601.992 75.0469C600.617 76.9531 599.906 79.7578 599.859 83.4609V86.0859C599.859 89.7734 600.633 92.6406 602.18 94.6875C603.742 96.7188 605.906 97.7344 608.672 97.7344C611.703 97.7344 613.859 97.0469 615.141 95.6719V88.9922H608.109V84.4922H621.047V97.5703ZM654.797 85.8281C654.797 89.1719 654.219 92.1094 653.062 94.6406C651.906 97.1562 650.25 99.0938 648.094 100.453C645.953 101.797 643.484 102.469 640.688 102.469C637.922 102.469 635.453 101.797 633.281 100.453C631.125 99.0938 629.453 97.1641 628.266 94.6641C627.094 92.1641 626.5 89.2812 626.484 86.0156V84.0938C626.484 80.7656 627.07 77.8281 628.242 75.2812C629.43 72.7344 631.094 70.7891 633.234 69.4453C635.391 68.0859 637.859 67.4062 640.641 67.4062C643.422 67.4062 645.883 68.0781 648.023 69.4219C650.18 70.75 651.844 72.6719 653.016 75.1875C654.188 77.6875 654.781 80.6016 654.797 83.9297V85.8281ZM648.867 84.0469C648.867 80.2656 648.148 77.3672 646.711 75.3516C645.289 73.3359 643.266 72.3281 640.641 72.3281C638.078 72.3281 636.07 73.3359 634.617 75.3516C633.18 77.3516 632.445 80.1875 632.414 83.8594V85.8281C632.414 89.5781 633.141 92.4766 634.594 94.5234C636.062 96.5703 638.094 97.5938 640.688 97.5938C643.312 97.5938 645.328 96.5938 646.734 94.5938C648.156 92.5938 648.867 89.6719 648.867 85.8281V84.0469ZM687.938 85.8281C687.938 89.1719 687.359 92.1094 686.203 94.6406C685.047 97.1562 683.391 99.0938 681.234 100.453C679.094 101.797 676.625 102.469 673.828 102.469C671.062 102.469 668.594 101.797 666.422 100.453C664.266 99.0938 662.594 97.1641 661.406 94.6641C660.234 92.1641 659.641 89.2812 659.625 86.0156V84.0938C659.625 80.7656 660.211 77.8281 661.383 75.2812C662.57 72.7344 664.234 70.7891 666.375 69.4453C668.531 68.0859 671 67.4062 673.781 67.4062C676.562 67.4062 679.023 68.0781 681.164 69.4219C683.32 70.75 684.984 72.6719 686.156 75.1875C687.328 77.6875 687.922 80.6016 687.938 83.9297V85.8281ZM682.008 84.0469C682.008 80.2656 681.289 77.3672 679.852 75.3516C678.43 73.3359 676.406 72.3281 673.781 72.3281C671.219 72.3281 669.211 73.3359 667.758 75.3516C666.32 77.3516 665.586 80.1875 665.555 83.8594V85.8281C665.555 89.5781 666.281 92.4766 667.734 94.5234C669.203 96.5703 671.234 97.5938 673.828 97.5938C676.453 97.5938 678.469 96.5938 679.875 94.5938C681.297 92.5938 682.008 89.6719 682.008 85.8281V84.0469ZM693.844 102V67.875H703.922C706.938 67.875 709.609 68.5469 711.938 69.8906C714.281 71.2344 716.094 73.1406 717.375 75.6094C718.656 78.0781 719.297 80.9062 719.297 84.0938V85.8047C719.297 89.0391 718.648 91.8828 717.352 94.3359C716.07 96.7891 714.234 98.6797 711.844 100.008C709.469 101.336 706.742 102 703.664 102H693.844ZM699.773 72.6562V97.2656H703.641C706.75 97.2656 709.133 96.2969 710.789 94.3594C712.461 92.4062 713.312 89.6094 713.344 85.9688V84.0703C713.344 80.3672 712.539 77.5391 710.93 75.5859C709.32 73.6328 706.984 72.6562 703.922 72.6562H699.773ZM735.703 92.7891C735.703 91.2109 736.133 89.7656 736.992 88.4531C737.852 87.125 739.547 85.5547 742.078 83.7422C740.75 82.0703 739.82 80.6484 739.289 79.4766C738.773 78.3047 738.516 77.1719 738.516 76.0781C738.516 73.4062 739.328 71.2969 740.953 69.75C742.578 68.1875 744.766 67.4062 747.516 67.4062C750 67.4062 752.031 68.1406 753.609 69.6094C755.203 71.0625 756 72.8672 756 75.0234C756 76.4453 755.641 77.7578 754.922 78.9609C754.203 80.1484 753.023 81.3359 751.383 82.5234L749.062 84.2109L755.648 91.9922C756.602 90.1172 757.078 88.0312 757.078 85.7344H762.023C762.023 89.9375 761.039 93.3828 759.07 96.0703L764.086 102H757.477L755.555 99.7266C753.117 101.555 750.211 102.469 746.836 102.469C743.461 102.469 740.758 101.578 738.727 99.7969C736.711 98 735.703 95.6641 735.703 92.7891ZM747 97.9219C748.922 97.9219 750.719 97.2812 752.391 96L744.938 87.2109L744.211 87.7266C742.336 89.1484 741.398 90.7734 741.398 92.6016C741.398 94.1797 741.906 95.4609 742.922 96.4453C743.938 97.4297 745.297 97.9219 747 97.9219ZM743.859 75.9375C743.859 77.25 744.664 78.8984 746.273 80.8828L748.875 79.1016L749.602 78.5156C750.57 77.6562 751.055 76.5547 751.055 75.2109C751.055 74.3203 750.719 73.5625 750.047 72.9375C749.375 72.2969 748.523 71.9766 747.492 71.9766C746.383 71.9766 745.5 72.3516 744.844 73.1016C744.188 73.8516 743.859 74.7969 743.859 75.9375ZM787.5 67.875L797.344 94.0312L807.164 67.875H814.828V102H808.922V90.75L809.508 75.7031L799.43 102H795.188L785.133 75.7266L785.719 90.75V102H779.812V67.875H787.5ZM841.383 94.0547H828.164L825.398 102H819.234L832.125 67.875H837.445L850.359 102H844.172L841.383 94.0547ZM829.828 89.2734H839.719L834.773 75.1172L829.828 89.2734ZM864.047 87.2578L860.18 91.3594V102H854.25V67.875H860.18V83.8828L863.461 79.8281L873.445 67.875H880.617L867.938 82.9922L881.344 102H874.312L864.047 87.2578ZM904.477 86.7656H890.461V97.2656H906.844V102H884.531V67.875H906.68V72.6562H890.461V82.0781H904.477V86.7656ZM929.508 93.2109C929.508 91.7109 928.977 90.5547 927.914 89.7422C926.867 88.9297 924.969 88.1094 922.219 87.2812C919.469 86.4531 917.281 85.5312 915.656 84.5156C912.547 82.5625 910.992 80.0156 910.992 76.875C910.992 74.125 912.109 71.8594 914.344 70.0781C916.594 68.2969 919.508 67.4062 923.086 67.4062C925.461 67.4062 927.578 67.8438 929.438 68.7188C931.297 69.5938 932.758 70.8438 933.82 72.4688C934.883 74.0781 935.414 75.8672 935.414 77.8359H929.508C929.508 76.0547 928.945 74.6641 927.82 73.6641C926.711 72.6484 925.117 72.1406 923.039 72.1406C921.102 72.1406 919.594 72.5547 918.516 73.3828C917.453 74.2109 916.922 75.3672 916.922 76.8516C916.922 78.1016 917.5 79.1484 918.656 79.9922C919.812 80.8203 921.719 81.6328 924.375 82.4297C927.031 83.2109 929.164 84.1094 930.773 85.125C932.383 86.125 933.562 87.2812 934.312 88.5938C935.062 89.8906 935.438 91.4141 935.438 93.1641C935.438 96.0078 934.344 98.2734 932.156 99.9609C929.984 101.633 927.031 102.469 923.297 102.469C920.828 102.469 918.555 102.016 916.477 101.109C914.414 100.188 912.805 98.9219 911.648 97.3125C910.508 95.7031 909.938 93.8281 909.938 91.6875H915.867C915.867 93.625 916.508 95.125 917.789 96.1875C919.07 97.25 920.906 97.7812 923.297 97.7812C925.359 97.7812 926.906 97.3672 927.938 96.5391C928.984 95.6953 929.508 94.5859 929.508 93.2109ZM963.727 84.0469L971.578 67.875H978.141L966.703 89.4375V102H960.75V89.4375L949.289 67.875H955.875L963.727 84.0469ZM1008.38 85.8281C1008.38 89.1719 1007.8 92.1094 1006.64 94.6406C1005.48 97.1562 1003.83 99.0938 1001.67 100.453C999.531 101.797 997.062 102.469 994.266 102.469C991.5 102.469 989.031 101.797 986.859 100.453C984.703 99.0938 983.031 97.1641 981.844 94.6641C980.672 92.1641 980.078 89.2812 980.062 86.0156V84.0938C980.062 80.7656 980.648 77.8281 981.82 75.2812C983.008 72.7344 984.672 70.7891 986.812 69.4453C988.969 68.0859 991.438 67.4062 994.219 67.4062C997 67.4062 999.461 68.0781 1001.6 69.4219C1003.76 70.75 1005.42 72.6719 1006.59 75.1875C1007.77 77.6875 1008.36 80.6016 1008.38 83.9297V85.8281ZM1002.45 84.0469C1002.45 80.2656 1001.73 77.3672 1000.29 75.3516C998.867 73.3359 996.844 72.3281 994.219 72.3281C991.656 72.3281 989.648 73.3359 988.195 75.3516C986.758 77.3516 986.023 80.1875 985.992 83.8594V85.8281C985.992 89.5781 986.719 92.4766 988.172 94.5234C989.641 96.5703 991.672 97.5938 994.266 97.5938C996.891 97.5938 998.906 96.5938 1000.31 94.5938C1001.73 92.5938 1002.45 89.6719 1002.45 85.8281V84.0469ZM1039.24 67.875V90.6797C1039.24 94.3047 1038.08 97.1797 1035.75 99.3047C1033.44 101.414 1030.35 102.469 1026.49 102.469C1022.59 102.469 1019.48 101.43 1017.19 99.3516C1014.89 97.2578 1013.74 94.3594 1013.74 90.6562V67.875H1019.65V90.7031C1019.65 92.9844 1020.23 94.7266 1021.38 95.9297C1022.54 97.1328 1024.24 97.7344 1026.49 97.7344C1031.05 97.7344 1033.34 95.3281 1033.34 90.5156V67.875H1039.24ZM1077.21 87.5391H1063.48V102H1057.55V67.875H1079.23V72.6562H1063.48V82.8047H1077.21V87.5391ZM1103.88 86.7656H1089.87V97.2656H1106.25V102H1083.94V67.875H1106.09V72.6562H1089.87V82.0781H1103.88V86.7656ZM1131.02 86.7656H1117.01V97.2656H1133.39V102H1111.08V67.875H1133.23V72.6562H1117.01V82.0781H1131.02V86.7656ZM1144.15 97.2656H1159.64V102H1138.22V67.875H1144.15V97.2656ZM1202.3 97.5703C1201.06 99.1797 1199.35 100.398 1197.16 101.227C1194.98 102.055 1192.49 102.469 1189.71 102.469C1186.85 102.469 1184.32 101.82 1182.12 100.523C1179.91 99.2266 1178.21 97.375 1177.01 94.9688C1175.82 92.5469 1175.2 89.7266 1175.16 86.5078V83.8359C1175.16 78.6797 1176.39 74.6562 1178.86 71.7656C1181.33 68.8594 1184.77 67.4062 1189.2 67.4062C1192.99 67.4062 1196.01 68.3438 1198.24 70.2188C1200.48 72.0938 1201.82 74.7969 1202.27 78.3281H1196.46C1195.8 74.2188 1193.42 72.1641 1189.31 72.1641C1186.66 72.1641 1184.63 73.125 1183.24 75.0469C1181.87 76.9531 1181.16 79.7578 1181.11 83.4609V86.0859C1181.11 89.7734 1181.88 92.6406 1183.43 94.6875C1184.99 96.7188 1187.16 97.7344 1189.92 97.7344C1192.95 97.7344 1195.11 97.0469 1196.39 95.6719V88.9922H1189.36V84.4922H1202.3V97.5703ZM1236.05 85.8281C1236.05 89.1719 1235.47 92.1094 1234.31 94.6406C1233.16 97.1562 1231.5 99.0938 1229.34 100.453C1227.2 101.797 1224.73 102.469 1221.94 102.469C1219.17 102.469 1216.7 101.797 1214.53 100.453C1212.38 99.0938 1210.7 97.1641 1209.52 94.6641C1208.34 92.1641 1207.75 89.2812 1207.73 86.0156V84.0938C1207.73 80.7656 1208.32 77.8281 1209.49 75.2812C1210.68 72.7344 1212.34 70.7891 1214.48 69.4453C1216.64 68.0859 1219.11 67.4062 1221.89 67.4062C1224.67 67.4062 1227.13 68.0781 1229.27 69.4219C1231.43 70.75 1233.09 72.6719 1234.27 75.1875C1235.44 77.6875 1236.03 80.6016 1236.05 83.9297V85.8281ZM1230.12 84.0469C1230.12 80.2656 1229.4 77.3672 1227.96 75.3516C1226.54 73.3359 1224.52 72.3281 1221.89 72.3281C1219.33 72.3281 1217.32 73.3359 1215.87 75.3516C1214.43 77.3516 1213.7 80.1875 1213.66 83.8594V85.8281C1213.66 89.5781 1214.39 92.4766 1215.84 94.5234C1217.31 96.5703 1219.34 97.5938 1221.94 97.5938C1224.56 97.5938 1226.58 96.5938 1227.98 94.5938C1229.41 92.5938 1230.12 89.6719 1230.12 85.8281V84.0469ZM1269.19 85.8281C1269.19 89.1719 1268.61 92.1094 1267.45 94.6406C1266.3 97.1562 1264.64 99.0938 1262.48 100.453C1260.34 101.797 1257.88 102.469 1255.08 102.469C1252.31 102.469 1249.84 101.797 1247.67 100.453C1245.52 99.0938 1243.84 97.1641 1242.66 94.6641C1241.48 92.1641 1240.89 89.2812 1240.88 86.0156V84.0938C1240.88 80.7656 1241.46 77.8281 1242.63 75.2812C1243.82 72.7344 1245.48 70.7891 1247.62 69.4453C1249.78 68.0859 1252.25 67.4062 1255.03 67.4062C1257.81 67.4062 1260.27 68.0781 1262.41 69.4219C1264.57 70.75 1266.23 72.6719 1267.41 75.1875C1268.58 77.6875 1269.17 80.6016 1269.19 83.9297V85.8281ZM1263.26 84.0469C1263.26 80.2656 1262.54 77.3672 1261.1 75.3516C1259.68 73.3359 1257.66 72.3281 1255.03 72.3281C1252.47 72.3281 1250.46 73.3359 1249.01 75.3516C1247.57 77.3516 1246.84 80.1875 1246.8 83.8594V85.8281C1246.8 89.5781 1247.53 92.4766 1248.98 94.5234C1250.45 96.5703 1252.48 97.5938 1255.08 97.5938C1257.7 97.5938 1259.72 96.5938 1261.12 94.5938C1262.55 92.5938 1263.26 89.6719 1263.26 85.8281V84.0469ZM1275.09 102V67.875H1285.17C1288.19 67.875 1290.86 68.5469 1293.19 69.8906C1295.53 71.2344 1297.34 73.1406 1298.62 75.6094C1299.91 78.0781 1300.55 80.9062 1300.55 84.0938V85.8047C1300.55 89.0391 1299.9 91.8828 1298.6 94.3359C1297.32 96.7891 1295.48 98.6797 1293.09 100.008C1290.72 101.336 1287.99 102 1284.91 102H1275.09ZM1281.02 72.6562V97.2656H1284.89C1288 97.2656 1290.38 96.2969 1292.04 94.3594C1293.71 92.4062 1294.56 89.6094 1294.59 85.9688V84.0703C1294.59 80.3672 1293.79 77.5391 1292.18 75.5859C1290.57 73.6328 1288.23 72.6562 1285.17 72.6562H1281.02Z" fill="black"/>
<path d="M1754.4 53.4245H1711.92C1695.96 53.4245 1682.87 41.1335 1681.6 25.5H1724.08C1740.04 25.5 1753.13 37.7909 1754.4 53.4245Z" fill="#37D234" stroke="black" stroke-width="5"/>
<path d="M1711.92 58.4245H1754.4C1753.13 74.058 1740.04 86.349 1724.08 86.349H1681.6C1682.87 70.7154 1695.96 58.4245 1711.92 58.4245Z" fill="white" stroke="black" stroke-width="5"/>
<path d="M1643 132.941C1644.07 132.941 1644.95 132.631 1645.66 132.01C1646.36 131.389 1646.73 130.621 1646.78 129.707H1650.81C1650.76 130.891 1650.39 131.998 1649.7 133.029C1649.01 134.049 1648.07 134.857 1646.89 135.455C1645.7 136.053 1644.43 136.352 1643.05 136.352C1640.39 136.352 1638.29 135.49 1636.73 133.768C1635.17 132.045 1634.39 129.666 1634.39 126.631V126.191C1634.39 123.297 1635.16 120.982 1636.71 119.248C1638.26 117.502 1640.37 116.629 1643.04 116.629C1645.3 116.629 1647.14 117.291 1648.56 118.615C1649.99 119.928 1650.74 121.656 1650.81 123.801H1646.78C1646.73 122.711 1646.36 121.814 1645.66 121.111C1644.96 120.408 1644.08 120.057 1643 120.057C1641.62 120.057 1640.55 120.561 1639.8 121.568C1639.05 122.564 1638.67 124.082 1638.66 126.121V126.807C1638.66 128.869 1639.03 130.41 1639.77 131.43C1640.52 132.438 1641.6 132.941 1643 132.941ZM1665.55 134.137C1664.3 135.613 1662.52 136.352 1660.21 136.352C1658.15 136.352 1656.58 135.748 1655.52 134.541C1654.46 133.334 1653.94 131.588 1653.94 129.303V116.98H1658.21V129.25C1658.21 131.664 1659.21 132.871 1661.21 132.871C1663.29 132.871 1664.69 132.127 1665.41 130.639V116.98H1669.69V136H1665.66L1665.55 134.137ZM1678.58 136H1674.31V109H1678.58V136ZM1688.6 112.357V116.98H1691.96V120.145H1688.6V130.762C1688.6 131.488 1688.74 132.016 1689.02 132.344C1689.31 132.66 1689.83 132.818 1690.57 132.818C1691.06 132.818 1691.56 132.76 1692.06 132.643V135.947C1691.09 136.217 1690.15 136.352 1689.25 136.352C1685.97 136.352 1684.33 134.541 1684.33 130.92V120.145H1681.2V116.98H1684.33V112.357H1688.6ZM1706.76 134.137C1705.5 135.613 1703.72 136.352 1701.41 136.352C1699.35 136.352 1697.79 135.748 1696.72 134.541C1695.67 133.334 1695.14 131.588 1695.14 129.303V116.98H1699.41V129.25C1699.41 131.664 1700.41 132.871 1702.42 132.871C1704.49 132.871 1705.89 132.127 1706.62 130.639V116.98H1710.89V136H1706.86L1706.76 134.137ZM1725.2 120.883C1724.63 120.789 1724.05 120.742 1723.46 120.742C1721.5 120.742 1720.18 121.492 1719.5 122.992V136H1715.23V116.98H1719.31L1719.41 119.107C1720.45 117.455 1721.88 116.629 1723.7 116.629C1724.31 116.629 1724.82 116.711 1725.21 116.875L1725.2 120.883ZM1735.92 136.352C1733.21 136.352 1731.02 135.502 1729.33 133.803C1727.65 132.092 1726.81 129.818 1726.81 126.982V126.455C1726.81 124.557 1727.18 122.863 1727.9 121.375C1728.64 119.875 1729.67 118.709 1731 117.877C1732.32 117.045 1733.8 116.629 1735.43 116.629C1738.02 116.629 1740.02 117.455 1741.42 119.107C1742.84 120.76 1743.55 123.098 1743.55 126.121V127.844H1731.12C1731.25 129.414 1731.77 130.656 1732.69 131.57C1733.61 132.484 1734.77 132.941 1736.17 132.941C1738.12 132.941 1739.72 132.15 1740.95 130.568L1743.25 132.766C1742.49 133.902 1741.47 134.787 1740.19 135.42C1738.93 136.041 1737.5 136.352 1735.92 136.352ZM1735.41 120.057C1734.24 120.057 1733.29 120.467 1732.56 121.287C1731.85 122.107 1731.39 123.25 1731.19 124.715H1739.33V124.398C1739.24 122.969 1738.86 121.891 1738.19 121.164C1737.52 120.426 1736.59 120.057 1735.41 120.057ZM1761.2 112.357V116.98H1764.55V120.145H1761.2V130.762C1761.2 131.488 1761.34 132.016 1761.62 132.344C1761.91 132.66 1762.43 132.818 1763.17 132.818C1763.66 132.818 1764.16 132.76 1764.66 132.643V135.947C1763.69 136.217 1762.75 136.352 1761.85 136.352C1758.57 136.352 1756.93 134.541 1756.93 130.92V120.145H1753.8V116.98H1756.93V112.357H1761.2ZM1777.79 120.883C1777.23 120.789 1776.65 120.742 1776.05 120.742C1774.09 120.742 1772.78 121.492 1772.1 122.992V136H1767.82V116.98H1771.9L1772.01 119.107C1773.04 117.455 1774.47 116.629 1776.3 116.629C1776.91 116.629 1777.41 116.711 1777.81 116.875L1777.79 120.883ZM1785.03 136H1780.76V116.98H1785.03V136ZM1780.5 112.041C1780.5 111.385 1780.7 110.84 1781.11 110.406C1781.54 109.973 1782.13 109.756 1782.91 109.756C1783.68 109.756 1784.28 109.973 1784.7 110.406C1785.12 110.84 1785.33 111.385 1785.33 112.041C1785.33 112.686 1785.12 113.225 1784.7 113.658C1784.28 114.08 1783.68 114.291 1782.91 114.291C1782.13 114.291 1781.54 114.08 1781.11 113.658C1780.7 113.225 1780.5 112.686 1780.5 112.041ZM1806.36 126.684C1806.36 129.625 1805.69 131.975 1804.35 133.732C1803.02 135.479 1801.22 136.352 1798.97 136.352C1796.89 136.352 1795.22 135.666 1793.96 134.295V143.312H1789.69V116.98H1793.63L1793.8 118.914C1795.06 117.391 1796.76 116.629 1798.92 116.629C1801.24 116.629 1803.06 117.496 1804.37 119.23C1805.69 120.953 1806.36 123.35 1806.36 126.42V126.684ZM1802.1 126.314C1802.1 124.416 1801.72 122.91 1800.96 121.797C1800.21 120.684 1799.13 120.127 1797.72 120.127C1795.98 120.127 1794.72 120.848 1793.96 122.289V130.727C1794.74 132.203 1796 132.941 1797.76 132.941C1799.12 132.941 1800.18 132.396 1800.94 131.307C1801.71 130.205 1802.1 128.541 1802.1 126.314Z" fill="black"/>
<defs>
<linearGradient id="paint0_linear" x1="262.5" y1="72.9999" x2="1545.5" y2="102" gradientUnits="userSpaceOnUse">
<stop stop-color="#6CED6A"/>
<stop offset="0.536458" stop-color="#62FF5F"/>
<stop offset="1" stop-color="#57EB54"/>
</linearGradient>
</defs>
</svg>
