<svg width="707" height="184" viewBox="0 0 707 184" fill="none" xmlns="http://www.w3.org/2000/svg">
<path d="M160.443 68.5875H70.0874C41.3299 68.5875 17.8631 45.9349 16.5573 17.5H106.913C135.67 17.5 159.137 40.1526 160.443 68.5875Z" fill="#37D234" stroke="black" stroke-width="5"/>
<path d="M70.0874 73.5874H160.443C159.137 102.022 135.67 124.675 106.913 124.675H16.5573C17.8631 96.24 41.3299 73.5874 70.0874 73.5874Z" fill="white" stroke="black" stroke-width="5"/>
<path d="M206.672 93.8438C209.516 93.8438 211.875 93.0156 213.75 91.3594C215.625 89.7031 216.625 87.6562 216.75 85.2188H227.484C227.359 88.375 226.375 91.3281 224.531 94.0781C222.688 96.7969 220.188 98.9531 217.031 100.547C213.875 102.141 210.469 102.938 206.812 102.938C199.719 102.938 194.094 100.641 189.938 96.0469C185.781 91.4531 183.703 85.1094 183.703 77.0156V75.8438C183.703 68.125 185.766 61.9531 189.891 57.3281C194.016 52.6719 199.641 50.3438 206.766 50.3438C212.797 50.3438 217.703 52.1094 221.484 55.6406C225.297 59.1406 227.297 63.75 227.484 69.4688H216.75C216.625 66.5625 215.625 64.1719 213.75 62.2969C211.906 60.4219 209.547 59.4844 206.672 59.4844C202.984 59.4844 200.141 60.8281 198.141 63.5156C196.141 66.1719 195.125 70.2188 195.094 75.6562V77.4844C195.094 82.9844 196.078 87.0938 198.047 89.8125C200.047 92.5 202.922 93.8438 206.672 93.8438ZM266.812 97.0312C263.469 100.969 258.719 102.938 252.562 102.938C247.062 102.938 242.891 101.328 240.047 98.1094C237.234 94.8906 235.828 90.2344 235.828 84.1406V51.2812H247.219V84C247.219 90.4375 249.891 93.6562 255.234 93.6562C260.766 93.6562 264.5 91.6719 266.438 87.7031V51.2812H277.828V102H267.094L266.812 97.0312ZM301.547 102H290.156V30H301.547V102ZM328.266 38.9531V51.2812H337.219V59.7188H328.266V88.0312C328.266 89.9688 328.641 91.375 329.391 92.25C330.172 93.0938 331.547 93.5156 333.516 93.5156C334.828 93.5156 336.156 93.3594 337.5 93.0469V101.859C334.906 102.578 332.406 102.938 330 102.938C321.25 102.938 316.875 98.1094 316.875 88.4531V59.7188H308.531V51.2812H316.875V38.9531H328.266ZM376.688 97.0312C373.344 100.969 368.594 102.938 362.438 102.938C356.938 102.938 352.766 101.328 349.922 98.1094C347.109 94.8906 345.703 90.2344 345.703 84.1406V51.2812H357.094V84C357.094 90.4375 359.766 93.6562 365.109 93.6562C370.641 93.6562 374.375 91.6719 376.312 87.7031V51.2812H387.703V102H376.969L376.688 97.0312ZM425.859 61.6875C424.359 61.4375 422.812 61.3125 421.219 61.3125C416 61.3125 412.484 63.3125 410.672 67.3125V102H399.281V51.2812H410.156L410.438 56.9531C413.188 52.5469 417 50.3438 421.875 50.3438C423.5 50.3438 424.844 50.5625 425.906 51L425.859 61.6875ZM454.453 102.938C447.234 102.938 441.375 100.672 436.875 96.1406C432.406 91.5781 430.172 85.5156 430.172 77.9531V76.5469C430.172 71.4844 431.141 66.9688 433.078 63C435.047 59 437.797 55.8906 441.328 53.6719C444.859 51.4531 448.797 50.3438 453.141 50.3438C460.047 50.3438 465.375 52.5469 469.125 56.9531C472.906 61.3594 474.797 67.5938 474.797 75.6562V80.25H441.656C442 84.4375 443.391 87.75 445.828 90.1875C448.297 92.625 451.391 93.8438 455.109 93.8438C460.328 93.8438 464.578 91.7344 467.859 87.5156L474 93.375C471.969 96.4062 469.25 98.7656 465.844 100.453C462.469 102.109 458.672 102.938 454.453 102.938ZM453.094 59.4844C449.969 59.4844 447.438 60.5781 445.5 62.7656C443.594 64.9531 442.375 68 441.844 71.9062H463.547V71.0625C463.297 67.25 462.281 64.375 460.5 62.4375C458.719 60.4688 456.25 59.4844 453.094 59.4844ZM521.859 38.9531V51.2812H530.812V59.7188H521.859V88.0312C521.859 89.9688 522.234 91.375 522.984 92.25C523.766 93.0938 525.141 93.5156 527.109 93.5156C528.422 93.5156 529.75 93.3594 531.094 93.0469V101.859C528.5 102.578 526 102.938 523.594 102.938C514.844 102.938 510.469 98.1094 510.469 88.4531V59.7188H502.125V51.2812H510.469V38.9531H521.859ZM566.109 61.6875C564.609 61.4375 563.062 61.3125 561.469 61.3125C556.25 61.3125 552.734 63.3125 550.922 67.3125V102H539.531V51.2812H550.406L550.688 56.9531C553.438 52.5469 557.25 50.3438 562.125 50.3438C563.75 50.3438 565.094 50.5625 566.156 51L566.109 61.6875ZM585.422 102H574.031V51.2812H585.422V102ZM573.328 38.1094C573.328 36.3594 573.875 34.9062 574.969 33.75C576.094 32.5938 577.688 32.0156 579.75 32.0156C581.812 32.0156 583.406 32.5938 584.531 33.75C585.656 34.9062 586.219 36.3594 586.219 38.1094C586.219 39.8281 585.656 41.2656 584.531 42.4219C583.406 43.5469 581.812 44.1094 579.75 44.1094C577.688 44.1094 576.094 43.5469 574.969 42.4219C573.875 41.2656 573.328 39.8281 573.328 38.1094ZM642.281 77.1562C642.281 85 640.5 91.2656 636.938 95.9531C633.375 100.609 628.594 102.938 622.594 102.938C617.031 102.938 612.578 101.109 609.234 97.4531V121.5H597.844V51.2812H608.344L608.812 56.4375C612.156 52.375 616.703 50.3438 622.453 50.3438C628.641 50.3438 633.484 52.6562 636.984 57.2812C640.516 61.875 642.281 68.2656 642.281 76.4531V77.1562ZM630.938 76.1719C630.938 71.1094 629.922 67.0938 627.891 64.125C625.891 61.1562 623.016 59.6719 619.266 59.6719C614.609 59.6719 611.266 61.5938 609.234 65.4375V87.9375C611.297 91.875 614.672 93.8438 619.359 93.8438C622.984 93.8438 625.812 92.3906 627.844 89.4844C629.906 86.5469 630.938 82.1094 630.938 76.1719Z" fill="black"/>
<path d="M65.6016 174V148.406H74.373C77.2676 148.406 79.4707 148.986 80.9824 150.146C82.4941 151.307 83.25 153.035 83.25 155.332C83.25 156.504 82.9336 157.559 82.3008 158.496C81.668 159.434 80.7422 160.16 79.5234 160.676C80.9062 161.051 81.9727 161.76 82.7227 162.803C83.4844 163.834 83.8652 165.076 83.8652 166.529C83.8652 168.932 83.0918 170.777 81.5449 172.066C80.0098 173.355 77.8066 174 74.9355 174H65.6016ZM70.0488 162.451V170.449H74.9883C76.3828 170.449 77.4727 170.104 78.2578 169.412C79.043 168.721 79.4355 167.76 79.4355 166.529C79.4355 163.869 78.0762 162.51 75.3574 162.451H70.0488ZM70.0488 159.182H74.4082C75.791 159.182 76.8691 158.871 77.6426 158.25C78.4277 157.617 78.8203 156.727 78.8203 155.578C78.8203 154.312 78.457 153.398 77.7305 152.836C77.0156 152.273 75.8965 151.992 74.373 151.992H70.0488V159.182ZM87.0996 164.314C87.0996 162.451 87.4688 160.775 88.207 159.287C88.9453 157.787 89.9824 156.639 91.3184 155.842C92.6543 155.033 94.1895 154.629 95.9238 154.629C98.4902 154.629 100.57 155.455 102.164 157.107C103.77 158.76 104.637 160.951 104.766 163.682L104.783 164.684C104.783 166.559 104.42 168.234 103.693 169.711C102.979 171.188 101.947 172.33 100.6 173.139C99.2637 173.947 97.7168 174.352 95.959 174.352C93.2754 174.352 91.125 173.461 89.5078 171.68C87.9023 169.887 87.0996 167.502 87.0996 164.525V164.314ZM91.3711 164.684C91.3711 166.641 91.7754 168.176 92.584 169.289C93.3926 170.391 94.5176 170.941 95.959 170.941C97.4004 170.941 98.5195 170.379 99.3164 169.254C100.125 168.129 100.529 166.482 100.529 164.314C100.529 162.393 100.113 160.869 99.2812 159.744C98.4609 158.619 97.3418 158.057 95.9238 158.057C94.5293 158.057 93.4219 158.613 92.6016 159.727C91.7812 160.828 91.3711 162.48 91.3711 164.684ZM107.596 164.314C107.596 162.451 107.965 160.775 108.703 159.287C109.441 157.787 110.479 156.639 111.814 155.842C113.15 155.033 114.686 154.629 116.42 154.629C118.986 154.629 121.066 155.455 122.66 157.107C124.266 158.76 125.133 160.951 125.262 163.682L125.279 164.684C125.279 166.559 124.916 168.234 124.189 169.711C123.475 171.188 122.443 172.33 121.096 173.139C119.76 173.947 118.213 174.352 116.455 174.352C113.771 174.352 111.621 173.461 110.004 171.68C108.398 169.887 107.596 167.502 107.596 164.525V164.314ZM111.867 164.684C111.867 166.641 112.271 168.176 113.08 169.289C113.889 170.391 115.014 170.941 116.455 170.941C117.896 170.941 119.016 170.379 119.812 169.254C120.621 168.129 121.025 166.482 121.025 164.314C121.025 162.393 120.609 160.869 119.777 159.744C118.957 158.619 117.838 158.057 116.42 158.057C115.025 158.057 113.918 158.613 113.098 159.727C112.277 160.828 111.867 162.48 111.867 164.684ZM135.07 165.844L133.172 167.795V174H128.9V147H133.172V162.574L134.508 160.904L139.764 154.98H144.896L137.83 162.908L145.652 174H140.713L135.07 165.844ZM176.695 170.678C175.77 171.885 174.486 172.799 172.846 173.42C171.205 174.041 169.342 174.352 167.256 174.352C165.111 174.352 163.213 173.865 161.561 172.893C159.908 171.92 158.631 170.531 157.729 168.727C156.838 166.91 156.375 164.795 156.34 162.381V160.377C156.34 156.51 157.266 153.492 159.117 151.324C160.969 149.145 163.553 148.055 166.869 148.055C169.717 148.055 171.979 148.758 173.654 150.164C175.33 151.57 176.338 153.598 176.678 156.246H172.318C171.826 153.164 170.039 151.623 166.957 151.623C164.965 151.623 163.447 152.344 162.404 153.785C161.373 155.215 160.84 157.318 160.805 160.096V162.064C160.805 164.83 161.385 166.98 162.545 168.516C163.717 170.039 165.34 170.801 167.414 170.801C169.688 170.801 171.305 170.285 172.266 169.254V164.244H166.992V160.869H176.695V170.678ZM180.369 164.314C180.369 162.451 180.738 160.775 181.477 159.287C182.215 157.787 183.252 156.639 184.588 155.842C185.924 155.033 187.459 154.629 189.193 154.629C191.76 154.629 193.84 155.455 195.434 157.107C197.039 158.76 197.906 160.951 198.035 163.682L198.053 164.684C198.053 166.559 197.689 168.234 196.963 169.711C196.248 171.188 195.217 172.33 193.869 173.139C192.533 173.947 190.986 174.352 189.229 174.352C186.545 174.352 184.395 173.461 182.777 171.68C181.172 169.887 180.369 167.502 180.369 164.525V164.314ZM184.641 164.684C184.641 166.641 185.045 168.176 185.854 169.289C186.662 170.391 187.787 170.941 189.229 170.941C190.67 170.941 191.789 170.379 192.586 169.254C193.395 168.129 193.799 166.482 193.799 164.314C193.799 162.393 193.383 160.869 192.551 159.744C191.73 158.619 190.611 158.057 189.193 158.057C187.799 158.057 186.691 158.613 185.871 159.727C185.051 160.828 184.641 162.48 184.641 164.684ZM200.865 164.314C200.865 162.451 201.234 160.775 201.973 159.287C202.711 157.787 203.748 156.639 205.084 155.842C206.42 155.033 207.955 154.629 209.689 154.629C212.256 154.629 214.336 155.455 215.93 157.107C217.535 158.76 218.402 160.951 218.531 163.682L218.549 164.684C218.549 166.559 218.186 168.234 217.459 169.711C216.744 171.188 215.713 172.33 214.365 173.139C213.029 173.947 211.482 174.352 209.725 174.352C207.041 174.352 204.891 173.461 203.273 171.68C201.668 169.887 200.865 167.502 200.865 164.525V164.314ZM205.137 164.684C205.137 166.641 205.541 168.176 206.35 169.289C207.158 170.391 208.283 170.941 209.725 170.941C211.166 170.941 212.285 170.379 213.082 169.254C213.891 168.129 214.295 166.482 214.295 164.314C214.295 162.393 213.879 160.869 213.047 159.744C212.227 158.619 211.107 158.057 209.689 158.057C208.295 158.057 207.188 158.613 206.367 159.727C205.547 160.828 205.137 162.48 205.137 164.684ZM221.361 164.35C221.361 161.42 222.041 159.07 223.4 157.301C224.76 155.52 226.582 154.629 228.867 154.629C230.883 154.629 232.512 155.332 233.754 156.738V147H238.025V174H234.158L233.947 172.031C232.67 173.578 230.965 174.352 228.832 174.352C226.605 174.352 224.801 173.455 223.418 171.662C222.047 169.869 221.361 167.432 221.361 164.35ZM225.633 164.719C225.633 166.652 226.002 168.164 226.74 169.254C227.49 170.332 228.551 170.871 229.922 170.871C231.668 170.871 232.945 170.092 233.754 168.533V160.412C232.969 158.889 231.703 158.127 229.957 158.127C228.574 158.127 227.508 158.678 226.758 159.779C226.008 160.869 225.633 162.516 225.633 164.719ZM254.109 169.5C254.906 169.5 255.521 169.729 255.955 170.186C256.389 170.631 256.605 171.193 256.605 171.873C256.605 172.541 256.389 173.098 255.955 173.543C255.521 173.977 254.906 174.193 254.109 174.193C253.348 174.193 252.744 173.977 252.299 173.543C251.854 173.109 251.631 172.553 251.631 171.873C251.631 171.193 251.848 170.631 252.281 170.186C252.715 169.729 253.324 169.5 254.109 169.5ZM288.316 151.992H280.336V174H275.924V151.992H268.014V148.406H288.316V151.992ZM300.076 158.883C299.514 158.789 298.934 158.742 298.336 158.742C296.379 158.742 295.061 159.492 294.381 160.992V174H290.109V154.98H294.188L294.293 157.107C295.324 155.455 296.754 154.629 298.582 154.629C299.191 154.629 299.695 154.711 300.094 154.875L300.076 158.883ZM313.611 174C313.424 173.637 313.26 173.045 313.119 172.225C311.76 173.643 310.096 174.352 308.127 174.352C306.217 174.352 304.658 173.807 303.451 172.717C302.244 171.627 301.641 170.279 301.641 168.674C301.641 166.646 302.391 165.094 303.891 164.016C305.402 162.926 307.559 162.381 310.359 162.381H312.979V161.133C312.979 160.148 312.703 159.363 312.152 158.777C311.602 158.18 310.764 157.881 309.639 157.881C308.666 157.881 307.869 158.127 307.248 158.619C306.627 159.1 306.316 159.715 306.316 160.465H302.045C302.045 159.422 302.391 158.449 303.082 157.547C303.773 156.633 304.711 155.918 305.895 155.402C307.09 154.887 308.42 154.629 309.885 154.629C312.111 154.629 313.887 155.191 315.211 156.316C316.535 157.43 317.215 159 317.25 161.027V169.605C317.25 171.316 317.49 172.682 317.971 173.701V174H313.611ZM308.918 170.924C309.762 170.924 310.553 170.719 311.291 170.309C312.041 169.898 312.604 169.348 312.979 168.656V165.07H310.676C309.094 165.07 307.904 165.346 307.107 165.896C306.311 166.447 305.912 167.227 305.912 168.234C305.912 169.055 306.182 169.711 306.721 170.203C307.271 170.684 308.004 170.924 308.918 170.924ZM328.148 168.586L332.174 154.98H336.586L329.994 174H326.285L319.641 154.98H324.07L328.148 168.586ZM347.396 174.352C344.689 174.352 342.492 173.502 340.805 171.803C339.129 170.092 338.291 167.818 338.291 164.982V164.455C338.291 162.557 338.654 160.863 339.381 159.375C340.119 157.875 341.15 156.709 342.475 155.877C343.799 155.045 345.275 154.629 346.904 154.629C349.494 154.629 351.492 155.455 352.898 157.107C354.316 158.76 355.025 161.098 355.025 164.121V165.844H342.598C342.727 167.414 343.248 168.656 344.162 169.57C345.088 170.484 346.248 170.941 347.643 170.941C349.6 170.941 351.193 170.15 352.424 168.568L354.727 170.766C353.965 171.902 352.945 172.787 351.668 173.42C350.402 174.041 348.979 174.352 347.396 174.352ZM346.887 158.057C345.715 158.057 344.766 158.467 344.039 159.287C343.324 160.107 342.867 161.25 342.668 162.715H350.807V162.398C350.713 160.969 350.332 159.891 349.664 159.164C348.996 158.426 348.07 158.057 346.887 158.057ZM362.9 174H358.629V147H362.9V174ZM396.562 170.678C395.637 171.885 394.354 172.799 392.713 173.42C391.072 174.041 389.209 174.352 387.123 174.352C384.979 174.352 383.08 173.865 381.428 172.893C379.775 171.92 378.498 170.531 377.596 168.727C376.705 166.91 376.242 164.795 376.207 162.381V160.377C376.207 156.51 377.133 153.492 378.984 151.324C380.836 149.145 383.42 148.055 386.736 148.055C389.584 148.055 391.846 148.758 393.521 150.164C395.197 151.57 396.205 153.598 396.545 156.246H392.186C391.693 153.164 389.906 151.623 386.824 151.623C384.832 151.623 383.314 152.344 382.271 153.785C381.24 155.215 380.707 157.318 380.672 160.096V162.064C380.672 164.83 381.252 166.98 382.412 168.516C383.584 170.039 385.207 170.801 387.281 170.801C389.555 170.801 391.172 170.285 392.133 169.254V164.244H386.859V160.869H396.562V170.678ZM400.236 164.314C400.236 162.451 400.605 160.775 401.344 159.287C402.082 157.787 403.119 156.639 404.455 155.842C405.791 155.033 407.326 154.629 409.061 154.629C411.627 154.629 413.707 155.455 415.301 157.107C416.906 158.76 417.773 160.951 417.902 163.682L417.92 164.684C417.92 166.559 417.557 168.234 416.83 169.711C416.115 171.188 415.084 172.33 413.736 173.139C412.4 173.947 410.854 174.352 409.096 174.352C406.412 174.352 404.262 173.461 402.645 171.68C401.039 169.887 400.236 167.502 400.236 164.525V164.314ZM404.508 164.684C404.508 166.641 404.912 168.176 405.721 169.289C406.529 170.391 407.654 170.941 409.096 170.941C410.537 170.941 411.656 170.379 412.453 169.254C413.262 168.129 413.666 166.482 413.666 164.314C413.666 162.393 413.25 160.869 412.418 159.744C411.598 158.619 410.479 158.057 409.061 158.057C407.666 158.057 406.559 158.613 405.738 159.727C404.918 160.828 404.508 162.48 404.508 164.684ZM420.732 164.314C420.732 162.451 421.102 160.775 421.84 159.287C422.578 157.787 423.615 156.639 424.951 155.842C426.287 155.033 427.822 154.629 429.557 154.629C432.123 154.629 434.203 155.455 435.797 157.107C437.402 158.76 438.27 160.951 438.398 163.682L438.416 164.684C438.416 166.559 438.053 168.234 437.326 169.711C436.611 171.188 435.58 172.33 434.232 173.139C432.896 173.947 431.35 174.352 429.592 174.352C426.908 174.352 424.758 173.461 423.141 171.68C421.535 169.887 420.732 167.502 420.732 164.525V164.314ZM425.004 164.684C425.004 166.641 425.408 168.176 426.217 169.289C427.025 170.391 428.15 170.941 429.592 170.941C431.033 170.941 432.152 170.379 432.949 169.254C433.758 168.129 434.162 166.482 434.162 164.314C434.162 162.393 433.746 160.869 432.914 159.744C432.094 158.619 430.975 158.057 429.557 158.057C428.162 158.057 427.055 158.613 426.234 159.727C425.414 160.828 425.004 162.48 425.004 164.684ZM441.229 164.35C441.229 161.42 441.908 159.07 443.268 157.301C444.627 155.52 446.449 154.629 448.734 154.629C450.75 154.629 452.379 155.332 453.621 156.738V147H457.893V174H454.025L453.814 172.031C452.537 173.578 450.832 174.352 448.699 174.352C446.473 174.352 444.668 173.455 443.285 171.662C441.914 169.869 441.229 167.432 441.229 164.35ZM445.5 164.719C445.5 166.652 445.869 168.164 446.607 169.254C447.357 170.332 448.418 170.871 449.789 170.871C451.535 170.871 452.812 170.092 453.621 168.533V160.412C452.836 158.889 451.57 158.127 449.824 158.127C448.441 158.127 447.375 158.678 446.625 159.779C445.875 160.869 445.5 162.516 445.5 164.719ZM473.977 169.5C474.773 169.5 475.389 169.729 475.822 170.186C476.256 170.631 476.473 171.193 476.473 171.873C476.473 172.541 476.256 173.098 475.822 173.543C475.389 173.977 474.773 174.193 473.977 174.193C473.215 174.193 472.611 173.977 472.166 173.543C471.721 173.109 471.498 172.553 471.498 171.873C471.498 171.193 471.715 170.631 472.148 170.186C472.582 169.729 473.191 169.5 473.977 169.5ZM505.494 163.154H495.193V174H490.746V148.406H507.006V151.992H495.193V159.604H505.494V163.154ZM518.115 174.352C515.408 174.352 513.211 173.502 511.523 171.803C509.848 170.092 509.01 167.818 509.01 164.982V164.455C509.01 162.557 509.373 160.863 510.1 159.375C510.838 157.875 511.869 156.709 513.193 155.877C514.518 155.045 515.994 154.629 517.623 154.629C520.213 154.629 522.211 155.455 523.617 157.107C525.035 158.76 525.744 161.098 525.744 164.121V165.844H513.316C513.445 167.414 513.967 168.656 514.881 169.57C515.807 170.484 516.967 170.941 518.361 170.941C520.318 170.941 521.912 170.15 523.143 168.568L525.445 170.766C524.684 171.902 523.664 172.787 522.387 173.42C521.121 174.041 519.697 174.352 518.115 174.352ZM517.605 158.057C516.434 158.057 515.484 158.467 514.758 159.287C514.043 160.107 513.586 161.25 513.387 162.715H521.525V162.398C521.432 160.969 521.051 159.891 520.383 159.164C519.715 158.426 518.789 158.057 517.605 158.057ZM537.451 174.352C534.744 174.352 532.547 173.502 530.859 171.803C529.184 170.092 528.346 167.818 528.346 164.982V164.455C528.346 162.557 528.709 160.863 529.436 159.375C530.174 157.875 531.205 156.709 532.529 155.877C533.854 155.045 535.33 154.629 536.959 154.629C539.549 154.629 541.547 155.455 542.953 157.107C544.371 158.76 545.08 161.098 545.08 164.121V165.844H532.652C532.781 167.414 533.303 168.656 534.217 169.57C535.143 170.484 536.303 170.941 537.697 170.941C539.654 170.941 541.248 170.15 542.479 168.568L544.781 170.766C544.02 171.902 543 172.787 541.723 173.42C540.457 174.041 539.033 174.352 537.451 174.352ZM536.941 158.057C535.77 158.057 534.82 158.467 534.094 159.287C533.379 160.107 532.922 161.25 532.723 162.715H540.861V162.398C540.768 160.969 540.387 159.891 539.719 159.164C539.051 158.426 538.125 158.057 536.941 158.057ZM552.955 174H548.684V147H552.955V174ZM586.617 170.678C585.691 171.885 584.408 172.799 582.768 173.42C581.127 174.041 579.264 174.352 577.178 174.352C575.033 174.352 573.135 173.865 571.482 172.893C569.83 171.92 568.553 170.531 567.65 168.727C566.76 166.91 566.297 164.795 566.262 162.381V160.377C566.262 156.51 567.188 153.492 569.039 151.324C570.891 149.145 573.475 148.055 576.791 148.055C579.639 148.055 581.9 148.758 583.576 150.164C585.252 151.57 586.26 153.598 586.6 156.246H582.24C581.748 153.164 579.961 151.623 576.879 151.623C574.887 151.623 573.369 152.344 572.326 153.785C571.295 155.215 570.762 157.318 570.727 160.096V162.064C570.727 164.83 571.307 166.98 572.467 168.516C573.639 170.039 575.262 170.801 577.336 170.801C579.609 170.801 581.227 170.285 582.188 169.254V164.244H576.914V160.869H586.617V170.678ZM590.291 164.314C590.291 162.451 590.66 160.775 591.398 159.287C592.137 157.787 593.174 156.639 594.51 155.842C595.846 155.033 597.381 154.629 599.115 154.629C601.682 154.629 603.762 155.455 605.355 157.107C606.961 158.76 607.828 160.951 607.957 163.682L607.975 164.684C607.975 166.559 607.611 168.234 606.885 169.711C606.17 171.188 605.139 172.33 603.791 173.139C602.455 173.947 600.908 174.352 599.15 174.352C596.467 174.352 594.316 173.461 592.699 171.68C591.094 169.887 590.291 167.502 590.291 164.525V164.314ZM594.562 164.684C594.562 166.641 594.967 168.176 595.775 169.289C596.584 170.391 597.709 170.941 599.15 170.941C600.592 170.941 601.711 170.379 602.508 169.254C603.316 168.129 603.721 166.482 603.721 164.314C603.721 162.393 603.305 160.869 602.473 159.744C601.652 158.619 600.533 158.057 599.115 158.057C597.721 158.057 596.613 158.613 595.793 159.727C594.973 160.828 594.562 162.48 594.562 164.684ZM610.787 164.314C610.787 162.451 611.156 160.775 611.895 159.287C612.633 157.787 613.67 156.639 615.006 155.842C616.342 155.033 617.877 154.629 619.611 154.629C622.178 154.629 624.258 155.455 625.852 157.107C627.457 158.76 628.324 160.951 628.453 163.682L628.471 164.684C628.471 166.559 628.107 168.234 627.381 169.711C626.666 171.188 625.635 172.33 624.287 173.139C622.951 173.947 621.404 174.352 619.646 174.352C616.963 174.352 614.812 173.461 613.195 171.68C611.59 169.887 610.787 167.502 610.787 164.525V164.314ZM615.059 164.684C615.059 166.641 615.463 168.176 616.271 169.289C617.08 170.391 618.205 170.941 619.646 170.941C621.088 170.941 622.207 170.379 623.004 169.254C623.812 168.129 624.217 166.482 624.217 164.314C624.217 162.393 623.801 160.869 622.969 159.744C622.148 158.619 621.029 158.057 619.611 158.057C618.217 158.057 617.109 158.613 616.289 159.727C615.469 160.828 615.059 162.48 615.059 164.684ZM631.283 164.35C631.283 161.42 631.963 159.07 633.322 157.301C634.682 155.52 636.504 154.629 638.789 154.629C640.805 154.629 642.434 155.332 643.676 156.738V147H647.947V174H644.08L643.869 172.031C642.592 173.578 640.887 174.352 638.754 174.352C636.527 174.352 634.723 173.455 633.34 171.662C631.969 169.869 631.283 167.432 631.283 164.35ZM635.555 164.719C635.555 166.652 635.924 168.164 636.662 169.254C637.412 170.332 638.473 170.871 639.844 170.871C641.59 170.871 642.867 170.092 643.676 168.533V160.412C642.891 158.889 641.625 158.127 639.879 158.127C638.496 158.127 637.43 158.678 636.68 159.779C635.93 160.869 635.555 162.516 635.555 164.719Z" fill="black"/>
</svg>
