<svg width="121" height="128" viewBox="0 0 121 128" fill="none" xmlns="http://www.w3.org/2000/svg">
<path fill-rule="evenodd" clip-rule="evenodd" d="M59.5 0C53.701 0 49 4.70101 49 10.5C49 12.1682 49.389 13.7455 50.0813 15.1462C28.8594 19.8954 13 38.8457 13 61.5V91.056C9.93595 92.6464 7.00028 94.3506 4.21187 96.1442C1.52221 97.8743 0 100.898 0 104.096C0 109.566 4.43422 114 9.90409 114H49.5975C49.2105 115.095 49 116.273 49 117.5C49 123.299 53.701 128 59.5 128H61.5C67.299 128 72 123.299 72 117.5C72 116.273 71.7895 115.095 71.4025 114H110.954C116.502 114 121 109.502 121 103.954C121 100.831 119.564 97.8599 117.001 96.075C114.027 94.0039 111.024 92.1401 108 90.4722V61.5C108 38.8456 92.1406 19.8954 70.9187 15.1462C71.611 13.7455 72 12.1682 72 10.5C72 4.70101 67.299 0 61.5 0H59.5ZM89 95V90.4722V61.5C89 45.7599 76.2401 33 60.5 33C44.7599 33 32 45.7599 32 61.5V91.056V95H89Z" fill="#8E93B7"/>
</svg>
